<?xml version="1.0" encoding="UTF-8"?>
<svg id="Layer_1" data-name="Layer 1" xmlns="http://www.w3.org/2000/svg" viewBox="0 0 1000 1000">
  <defs>
    <style>
      .cls-1 {
        fill: none;
        stroke: #000;
        stroke-linecap: round;
        stroke-linejoin: round;
        stroke-width: 130px;
      }
    </style>
  </defs>
  <path d="m500,130c50.01,0,98.45,9.76,143.98,29.02,44.04,18.63,83.63,45.32,117.65,79.35,34.02,34.02,60.72,73.61,79.35,117.65,19.26,45.53,29.02,93.97,29.02,143.98s-9.76,98.45-29.02,143.98c-18.63,44.04-45.33,83.63-79.35,117.65-34.02,34.02-73.6,60.72-117.65,79.35-45.53,19.26-93.97,29.02-143.98,29.02s-98.45-9.76-143.98-29.02c-44.04-18.63-83.63-45.33-117.65-79.35-34.02-34.02-60.72-73.6-79.35-117.65-19.26-45.53-29.02-93.97-29.02-143.98s9.76-98.45,29.02-143.98c18.63-44.04,45.32-83.63,79.35-117.65s73.61-60.72,117.65-79.35c45.53-19.26,93.97-29.02,143.98-29.02m0-130C223.86,0,0,223.86,0,500s223.86,500,500,500,500-223.86,500-500S776.14,0,500,0h0Z"/>
  <polyline class="cls-1" points="500 266.16 500 482.87 657.13 599.84"/>
</svg>