<?xml version="1.0" encoding="UTF-8"?>
<svg id="Layer_1" data-name="Layer 1" xmlns="http://www.w3.org/2000/svg" viewBox="0 0 751.83 998.45">
  <defs>
    <style>
      .cls-1 {
        fill: #f6960c;
      }
    </style>
  </defs>
  <path class="cls-1" d="m208.02,0h-111.14C43.38,0,0,43.45,0,97.04v804.37c0,53.59,43.38,97.04,96.89,97.04h111.14c53.51,0,96.89-43.45,96.89-97.04V97.04C304.91,43.45,261.53,0,208.02,0Z"/>
  <path class="cls-1" d="m654.94,0h-111.14c-53.51,0-96.89,43.45-96.89,97.04v804.37c0,53.59,43.38,97.04,96.89,97.04h111.14c53.51,0,96.89-43.45,96.89-97.04V97.04c0-53.59-43.38-97.04-96.89-97.04Z"/>
</svg>