<?xml version="1.0" encoding="UTF-8"?>
<svg id="Layer_1" data-name="Layer 1" xmlns="http://www.w3.org/2000/svg" viewBox="0 0 996.9 996.9">
  <defs>
    <style>
      .cls-1 {
        fill: #fff;
      }
    </style>
  </defs>
  <path class="cls-1" d="m683.68,498.45l284.85-284.85c37.84-37.84,37.84-99.18,0-137.02l-48.21-48.21c-37.84-37.84-99.18-37.84-137.02,0l-284.85,284.85L213.61,28.38c-37.84-37.84-99.18-37.84-137.02,0l-48.21,48.21c-37.84,37.84-37.84,99.18,0,137.02l284.85,284.85L28.38,783.3c-37.84,37.84-37.84,99.18,0,137.02l48.21,48.21c37.84,37.84,99.18,37.84,137.02,0l284.85-284.85,284.85,284.85c37.84,37.84,99.18,37.84,137.02,0l48.21-48.21c37.84-37.84,37.84-99.18,0-137.02l-284.85-284.85Z"/>
</svg>