<?xml version="1.0" encoding="UTF-8"?>
<svg id="Layer_1" data-name="Layer 1" xmlns="http://www.w3.org/2000/svg" viewBox="0 0 762.68 723.28">
  <defs>
    <style>
      .cls-1 {
        fill: #fff;
      }
    </style>
  </defs>
  <path class="cls-1" d="m335.49,231.18l-243.77,38.62v-45.92c0-25.35,20.55-49.16,45.9-53.17l487.43-77.2c25.35-4.02,45.9,13.28,45.9,38.63v45.9l-243.75,38.6v275.52l335.47-53.14v-91.72l-243.75,38.62v-92.08l243.75-38.6V116.41c-.61-74.2-60.09-125.04-134.07-115.19L134.05,79.55C60.46,93.08,1.24,162.06,0,236.02v140.01l243.77-38.62v92.08L0,468.11v91.72l335.49-53.14V231.18h0Z"/>
  <path class="cls-1" d="m754.82,532.06c-18.89,56.44-69.86,102.79-129.78,112.28l-487.4,77.2c-59.92,9.49-110.89-20.72-129.78-71.17l746.96-118.31Z"/>
</svg>